<?xml version="1.0" encoding="utf-8"?>
<!-- Generator: Adobe Illustrator 24.3.0, SVG Export Plug-In . SVG Version: 6.00 Build 0)  -->
<svg version="1.1" id="Layer_1" xmlns="http://www.w3.org/2000/svg" xmlns:xlink="http://www.w3.org/1999/xlink" x="0px" y="0px"
	 viewBox="0 0 512 512" style="enable-background:new 0 0 512 512;" xml:space="preserve">
<style type="text/css">
	.st0{fill:#CCCCCC;}
	.st1{fill:#A6120D;}
	.st2{fill:#B3B3B3;}
	.st3{fill:#DD1B16;}
	.st4{fill:#F2F2F2;}
</style>
<g id="XMLID_30_">
	<polygon id="XMLID_3_" class="st0" points="133.55,279.14 133.55,226.69 140.43,226.69 172.54,269.04 172.54,226.69 178.85,226.69 
		178.85,279.14 172.12,279.14 140.01,236.51 140.01,279.14 	"/>
	<path id="XMLID_4_" class="st0" d="M231.02,277.18c-4.21,1.68-8.83,2.38-13.74,2.38c-18.93,0-28.47-9.12-28.47-27.35
		c0-17.25,9.12-25.8,27.49-25.8c5.33,0,10.1,0.7,14.72,2.24v5.89c-4.49-1.68-9.12-2.52-13.88-2.52c-14.3,0-21.46,6.73-21.46,20.33
		c0,14.58,7.01,21.88,21.18,21.88c2.24,0,4.77-0.28,7.43-0.84v-17.81h6.73L231.02,277.18z"/>
	<path id="XMLID_5_" class="st0" d="M241.82,258.94v-32.25h6.73v32.25c0,10.1,5.05,15.15,15.01,15.15s15.01-5.05,15.01-15.15v-32.25
		h6.73v32.25c0,13.74-7.29,20.61-21.88,20.61C249.11,279.56,241.82,272.69,241.82,258.94z"/>
	<polygon id="XMLID_6_" class="st0" points="304.36,226.69 304.36,273.67 331.71,273.67 331.71,279.14 297.49,279.14 297.49,226.69 
			"/>
	<polygon id="XMLID_7_" class="st0" points="341.52,279.14 334.51,279.14 360.6,219.82 386.68,279.14 379.11,279.14 372.38,262.73 
		354.99,262.73 356.95,257.26 370.13,257.26 360.32,233.42 	"/>
	<path id="XMLID_8_" class="st0" d="M393.83,279.14v-52.45h22.44c9.96,0,15.01,4.21,15.01,12.62c0,6.87-4.91,11.92-14.58,15.15
		l17.95,24.68h-8.98l-16.83-23.56v-4.49c9.96-1.54,15.01-5.47,15.01-11.5c0-4.91-2.8-7.29-8.41-7.29h-15.01v46.84H393.83
		L393.83,279.14z"/>
	<path id="XMLID_9_" class="st0" d="M459.88,226.69v37.3c0,10.1-5.89,15.15-17.81,15.15v-5.47c7.29,0,10.94-3.23,10.94-9.68v-37.3
		H459.88z"/>
	<path id="XMLID_10_" class="st0" d="M472.08,277.32v-6.17c5.47,1.96,11.5,2.94,17.81,2.94c8.98,0,13.6-3.37,13.6-9.96
		c0-5.61-3.37-8.41-9.96-8.41h-6.73c-10.94,0-16.41-4.77-16.41-14.3c0-9.96,7.01-15.01,21.04-15.01c6.17,0,11.78,0.7,17.11,2.24
		v6.17c-5.33-1.96-10.94-2.94-17.11-2.94c-9.54,0-14.3,3.23-14.3,9.54c0,5.61,3.23,8.41,9.68,8.41h6.73
		c11.22,0,16.83,4.77,16.83,14.3c0,10.24-6.73,15.43-20.33,15.43C483.44,279.56,477.55,278.86,472.08,277.32z"/>
	<polygon id="XMLID_11_" points="135.38,277.46 135.38,225.01 142.11,225.01 174.22,267.22 174.22,225.01 180.67,225.01 
		180.67,277.46 173.8,277.46 141.69,234.82 141.69,277.46 	"/>
	<path id="XMLID_12_" d="M232.7,275.49c-4.21,1.68-8.83,2.38-13.74,2.38c-18.93,0-28.47-9.12-28.47-27.35
		c0-17.25,9.12-25.8,27.49-25.8c5.19,0,10.1,0.7,14.72,2.24v5.89c-4.49-1.68-9.12-2.52-13.88-2.52c-14.3,0-21.46,6.73-21.46,20.33
		c0,14.58,7.01,21.88,21.18,21.88c2.24,0,4.77-0.28,7.43-0.84V253.9h6.73L232.7,275.49z"/>
	<path id="XMLID_13_" d="M243.5,257.26v-32.25h6.73v32.25c0,10.1,5.05,15.15,15.01,15.15c9.96,0,15.01-5.05,15.01-15.15v-32.25h6.73
		v32.25c0,13.74-7.29,20.61-21.88,20.61C250.79,277.88,243.5,271.01,243.5,257.26z"/>
	<polygon id="XMLID_14_" points="306.04,225.01 306.04,271.99 333.53,271.99 333.53,277.46 299.31,277.46 299.31,225.01 	"/>
	<polygon id="XMLID_15_" points="343.35,277.46 336.19,277.46 362.28,218.14 388.36,277.46 380.93,277.46 374.06,260.91 
		356.67,260.91 358.63,255.44 371.81,255.44 362,231.74 	"/>
	<path id="XMLID_16_" d="M395.51,277.46v-52.45h22.44c9.96,0,15.01,4.21,15.01,12.62c0,6.87-4.91,11.92-14.58,15.15l17.95,24.68
		h-8.98l-16.69-23.56v-4.49c9.96-1.54,15.01-5.47,15.01-11.5c0-4.91-2.8-7.29-8.41-7.29h-15.01v46.84H395.51z"/>
	<path id="XMLID_17_" class="st1" d="M461.71,225.01v37.3c0,10.1-5.89,15.15-17.81,15.15v-5.47c7.29,0,10.94-3.23,10.94-9.68v-37.3
		H461.71z"/>
	<path id="XMLID_18_" class="st1" d="M473.77,275.63v-6.17c5.47,1.96,11.5,2.94,17.81,2.94c8.98,0,13.6-3.37,13.6-9.96
		c0-5.61-3.37-8.41-9.96-8.41h-6.73c-10.94,0-16.41-4.77-16.41-14.3c0-9.96,7.01-15.01,21.04-15.01c6.17,0,11.78,0.7,17.11,2.24
		v6.17c-5.33-1.96-10.94-2.94-17.11-2.94c-9.54,0-14.3,3.23-14.3,9.54c0,5.61,3.23,8.41,9.68,8.41h6.73
		c11.22,0,16.83,4.77,16.83,14.3c0,10.24-6.73,15.43-20.33,15.43C485.27,277.88,479.23,277.18,473.77,275.63z"/>
	<path id="XMLID_22_" d="M399.02,313.64l-2.52-7.57h-1.68l3.51,9.54c-0.14,0.14-0.28,0.56-0.42,0.98c-0.14,0.42-0.28,0.7-0.28,0.7
		c-0.14,0.14-0.14,0.28-0.28,0.42c-0.14,0.14-0.28,0.14-0.7,0.14c-0.14,0-0.14,0-0.28,0c-0.14,0-0.28,0-0.56-0.14v1.4
		c0.14,0,0.28,0.14,0.42,0.14c0.14,0,0.28,0,0.56,0c0.84,0,1.54-0.28,1.96-0.84s0.98-1.96,1.96-4.35c0.42-0.98,0.84-2.24,1.4-3.93
		c0.7-2.1,1.26-3.51,1.4-4.07h-1.68L399.02,313.64z M389.76,314.34c-1.12,0-1.96-0.56-2.24-1.54c-0.28-0.56-0.28-1.26-0.28-2.1
		c0-1.26,0.28-2.1,0.84-2.66c0.56-0.56,1.12-0.84,1.82-0.84c0.84,0,1.4,0.28,1.82,0.98s0.7,1.4,0.7,2.38c0,1.12-0.14,1.96-0.7,2.66
		C391.31,313.92,390.61,314.34,389.76,314.34z M385.7,315.32h1.4v-1.12c0.28,0.42,0.7,0.7,0.98,0.98c0.42,0.28,1.12,0.56,1.82,0.56
		c1.26,0,2.24-0.42,2.94-1.4c0.7-0.98,1.12-2.24,1.12-3.65c0-1.54-0.42-2.66-1.12-3.51c-0.7-0.84-1.68-1.26-2.8-1.26
		c-0.56,0-1.12,0.14-1.54,0.42c-0.42,0.28-0.84,0.56-1.26,0.98v-4.63h-1.54V315.32z"/>
	<polygon id="XMLID_23_" class="st2" points="61.33,186.02 0.05,207.48 9.73,287.83 61.33,316.16 113.22,287.41 122.9,207.2 	"/>
	<polygon id="XMLID_24_" class="st1" points="116.87,211.83 61.19,192.75 61.19,309.43 107.75,283.63 	"/>
	<polygon id="XMLID_25_" class="st3" points="6.92,212.11 15.2,283.91 61.19,309.43 61.19,192.75 	"/>
	<path id="XMLID_28_" class="st4" d="M76.48,254.88l-15.29,7.15H45.07l-7.57,18.93l-14.16,0.28l37.86-84.28L76.48,254.88z
		 M74.94,251.23l-13.74-27.21l-11.22,26.79h11.22L74.94,251.23z"/>
	<polygon id="XMLID_29_" class="st2" points="61.19,197.1 61.19,224.03 74.09,250.81 61.19,250.81 61.19,262.03 79,262.03 
		87.28,281.24 100.74,281.52 	"/>
	<g id="XMLID_2_">
		<path id="path2998" d="M436.04,305.22h-11.5v3.37h8.13c-0.42,4.77-4.35,6.87-8.13,6.87c-4.77,0-8.98-3.79-8.98-9.12
			c0-5.19,3.93-9.12,8.98-9.12c3.93,0,6.17,2.52,6.17,2.52l2.38-2.52c0,0-3.09-3.37-8.69-3.37c-7.15,0-12.62,6.03-12.62,12.48
			c0,6.31,5.19,12.48,12.76,12.48c6.73,0,11.64-4.63,11.64-11.36C436.18,305.92,436.04,305.22,436.04,305.22L436.04,305.22z"/>
		<path id="path3000" d="M445.44,302.7c-4.77,0-8.13,3.65-8.13,7.99s3.23,8.13,8.13,8.13c4.35,0,7.99-3.37,7.99-7.99
			C453.43,305.5,449.22,302.7,445.44,302.7L445.44,302.7z M445.44,305.78c2.38,0,4.49,1.82,4.49,4.91c0,2.94-2.24,4.91-4.49,4.91
			c-2.52,0-4.63-2.1-4.63-4.91C440.81,307.89,442.77,305.78,445.44,305.78L445.44,305.78z"/>
		<path id="path3005" d="M462.97,302.7c-4.77,0-8.13,3.65-8.13,7.99s3.23,8.13,8.13,8.13c4.35,0,7.99-3.37,7.99-7.99
			C470.96,305.5,466.89,302.7,462.97,302.7L462.97,302.7z M462.97,305.78c2.38,0,4.49,1.82,4.49,4.91c0,2.94-2.24,4.91-4.49,4.91
			c-2.52,0-4.63-2.1-4.63-4.91C458.34,307.89,460.44,305.78,462.97,305.78L462.97,305.78z"/>
		<path id="path3007" d="M480.22,302.7c-4.35,0-7.71,3.79-7.71,7.99c0,4.77,3.93,7.99,7.57,7.99c2.24,0,3.51-0.84,4.35-1.96v1.54
			c0,2.8-1.68,4.49-4.21,4.49c-2.52,0-3.65-1.82-4.07-2.8l-3.09,1.26c1.12,2.38,3.37,4.77,7.29,4.77c4.35,0,7.57-2.66,7.57-8.41
			v-14.44h-3.37v1.4C483.44,303.4,482.04,302.7,480.22,302.7L480.22,302.7z M480.5,305.92c2.1,0,4.35,1.82,4.35,4.91
			c0,3.09-2.1,4.91-4.35,4.91s-4.49-1.82-4.49-4.91C476.01,307.75,478.25,305.92,480.5,305.92L480.5,305.92z"/>
		<path id="path3011" d="M502.93,302.7c-4.07,0-7.43,3.23-7.43,7.99c0,5.05,3.79,8.13,7.85,8.13c3.37,0,5.47-1.82,6.73-3.51
			l-2.8-1.82c-0.7,1.12-1.96,2.24-3.93,2.24c-2.24,0-3.37-1.26-3.93-2.38l10.8-4.49l-0.56-1.26
			C508.54,304.8,506.16,302.7,502.93,302.7L502.93,302.7z M503.07,305.78c1.4,0,2.52,0.84,2.94,1.68l-7.15,2.94
			C498.45,308.17,500.69,305.78,503.07,305.78L503.07,305.78z"/>
		<path id="path3015" d="M490.31,318.26h3.51v-23.7h-3.51V318.26z"/>
	</g>
</g>
</svg>
